<svg width="48" height="48" viewBox="0 0 48 48" fill="none" xmlns="http://www.w3.org/2000/svg">
<g clip-path="url(#clip0_48_3389)">
<path d="M22.3999 24.0002H25.5999C26.0417 24.0002 26.3999 23.642 26.3999 23.2001C26.3999 22.7583 26.0417 22.4001 25.5999 22.4001H22.3999C21.958 22.4001 21.5999 22.7583 21.5999 23.2001C21.5999 23.642 21.958 24.0002 22.3999 24.0002Z" fill="white"/>
<path d="M24.7999 24.8003H23.1999C22.7581 24.8003 22.3999 25.1585 22.3999 25.6003C22.3999 26.0421 22.7581 26.4003 23.1999 26.4003H24.7999C25.2417 26.4003 25.5999 26.0421 25.5999 25.6003C25.5999 25.1585 25.2417 24.8003 24.7999 24.8003Z" fill="white"/>
<path d="M23.1999 20.8002H24.7999C25.2417 20.8002 25.5999 20.442 25.5999 20.0002C25.5999 19.5584 25.2417 19.2002 24.7999 19.2002H23.1999C22.7581 19.2002 22.3999 19.5584 22.3999 20.0002C22.3999 20.442 22.7581 20.8002 23.1999 20.8002Z" fill="white"/>
<path d="M5.81595 35.4339C3.62875 37.6195 2.55995 43.2715 2.39995 46.3203C2.37802 46.7583 2.53686 47.1861 2.83933 47.5037C3.1418 47.8213 3.56137 48.0008 3.99995 48.0003H44C44.4385 48.0008 44.8581 47.8213 45.1606 47.5037C45.4631 47.1861 45.6219 46.7583 45.6 46.3203C45.44 43.2707 44.3736 37.6187 42.1864 35.4331C39.9296 33.1795 32.7552 31.0331 30.9968 30.5355C30.4985 29.2595 30.2311 27.9051 30.2072 26.5355L32.236 24.7603C33.1037 24 33.6009 22.902 33.6 21.7483V20.7203C35.4594 20.3407 36.7962 18.7068 36.8 16.8091C36.7964 16.6393 36.7822 16.4699 36.7576 16.3019L39.2376 15.3139C39.5589 15.186 39.8101 14.9266 39.9274 14.6012C40.0447 14.2758 40.017 13.9158 39.8512 13.6123C39.2422 12.496 38.42 11.5101 37.4312 10.7107L38.4424 10.4555C39.024 10.311 39.4053 9.75395 39.3296 9.15947C39.0938 7.87165 38.2459 6.77924 37.0568 6.23147L37.9496 5.63707C38.416 5.3168 38.5981 4.716 38.388 4.19067C36.4336 -0.526933 29.1632 0.605068 28.1272 0.793068C25.4888 -0.257078 22.5498 -0.264228 19.9064 0.773068C18.3856 0.521068 11.6384 -0.324533 9.77195 4.19227C9.56242 4.72156 9.74948 5.32535 10.2216 5.64347L11.1088 6.23067C9.9152 6.77788 9.06444 7.87389 8.83035 9.16587C8.76234 9.76211 9.14937 10.3156 9.73275 10.4563L10.732 10.7083C9.73943 11.5108 8.91421 12.5005 8.30315 13.6211C8.14166 13.9239 8.11654 14.2812 8.23406 14.6037C8.35158 14.9262 8.60066 15.1835 8.91915 15.3115L11.248 16.2403C11.2182 16.4282 11.2021 16.618 11.2 16.8083C11.2034 18.7063 12.5402 20.3407 14.4 20.7203V21.7491C14.4 22.9026 14.8981 24 15.7664 24.7595L17.7952 26.5347C17.7712 27.9043 17.5038 29.2587 17.0056 30.5347C15.2472 31.0403 8.07275 33.1803 5.81595 35.4339ZM27.1312 46.4003L26.4224 38.6075L27.0152 37.7179C27.6467 38.2258 28.5598 38.175 29.1312 37.6003L31.9648 34.7675L33.4784 36.8867L29.0872 46.4003H27.1312ZM18.9136 46.4003L14.5216 36.8803L16.0352 34.7611L18.8688 37.6003C19.4427 38.1687 20.3502 38.2201 20.9848 37.7203L21.5776 38.6091L20.8688 46.4003H18.9136ZM25.172 37.6003H22.828L22.1496 36.5819L24 34.7315L25.8504 36.5819L25.172 37.6003ZM23.1304 39.2003H24.8696L25.524 46.4003H22.48L23.1304 39.2003ZM30.3048 32.4435L31.0248 33.4475L28 36.4691L25.8128 34.2819C27.4558 34.1141 29.0156 33.4758 30.3048 32.4435ZM20 36.4691L16.9784 33.4475L17.6984 32.4435C18.9874 33.4764 20.5471 34.1153 22.1904 34.2835L20 36.4691ZM3.99995 46.4051C4.18235 42.9067 5.35995 38.1507 6.94635 36.5651C8.36875 35.1435 12.6192 33.5755 15.5936 32.6307L13.22 35.9547C12.8857 36.422 12.8276 37.0327 13.068 37.5547L17.1512 46.4003H13.6V44.8003C13.6 44.3584 13.2418 44.0003 12.8 44.0003C12.3581 44.0003 12 44.3584 12 44.8003V46.4043L3.99995 46.4051ZM44 46.4003H36V44.8003C36 44.3584 35.6418 44.0003 35.2 44.0003C34.7581 44.0003 34.4 44.3584 34.4 44.8003V46.4003H30.8496L34.9296 37.5563C35.1703 37.0346 35.1129 36.4239 34.7792 35.9563L32.4064 32.6323C35.3808 33.5771 39.6312 35.1451 41.0536 36.5667C42.64 38.1507 43.8176 42.9067 44 46.4003ZM36.7672 4.50027L35.5832 5.28987C35.2164 5.53533 35.0139 5.96232 35.056 6.40166C35.0981 6.84099 35.378 7.22175 35.7848 7.39307C36.588 7.67361 37.2539 8.25019 37.6464 9.00507L36.2192 9.36507C35.7458 9.47487 35.3855 9.85927 35.3064 10.3387C35.2261 10.8106 35.4384 11.2844 35.844 11.5387C36.8109 12.1678 37.6233 13.0071 38.2208 13.9939L36.24 14.7843C35.8144 14.0597 35.1703 13.4887 34.4 13.1531V9.60027C34.3681 6.64943 32.9412 3.88788 30.5528 2.15467C32.6576 2.08027 35.6464 2.38507 36.7672 4.50027ZM32.8 9.60027V12.9755L30.3008 13.6003H26.4C26.0083 13.6016 25.6311 13.7478 25.3408 14.0107C24.5307 13.4634 23.4693 13.4634 22.6592 14.0107C22.3688 13.7478 21.9916 13.6016 21.6 13.6003H17.6992L15.2 12.9755V9.60027C15.2125 7.44576 16.1389 5.39781 17.7488 3.96587C19.4622 2.42153 21.6933 1.57723 24 1.60027C28.852 1.60027 32.8 5.18907 32.8 9.60027ZM30.4 15.2003V16.8003C30.4 17.2421 30.0418 17.6003 29.6 17.6003H27.2C26.7581 17.6003 26.4 17.2421 26.4 16.8003V15.2003H30.4ZM17.6 15.2003H21.6V16.8003C21.6 17.2421 21.2418 17.6003 20.8 17.6003H18.4C17.9581 17.6003 17.6 17.2421 17.6 16.8003V15.2003ZM9.93915 13.9955C10.5351 13.0105 11.3457 12.1726 12.3104 11.5443C12.7147 11.2877 12.9278 10.8153 12.8525 10.3424C12.7772 9.86949 12.428 9.48661 11.964 9.36827L10.5104 9.00187C10.9099 8.24133 11.5864 7.66337 12.4 7.38747C12.7971 7.21077 13.0676 6.83313 13.1072 6.40027C13.1479 5.9585 12.9454 5.52949 12.5784 5.28027L11.3936 4.49547C12.4824 2.43947 15.336 2.09547 17.4288 2.14827C17.1653 2.34667 16.9114 2.55787 16.6672 2.78187C14.724 4.51676 13.609 6.99531 13.6 9.60027V13.1531C12.8487 13.4812 12.2177 14.034 11.7936 14.7355L9.93915 13.9955ZM16 21.7483V20.0003C16 19.5584 15.6418 19.2003 15.2 19.2003C13.8776 19.2003 12.8044 18.1306 12.8 16.8083C12.8003 16.5514 12.8425 16.2964 12.9248 16.0531C12.9248 16.0467 12.9248 16.0403 12.9248 16.0347C13.186 15.2745 13.8129 14.6973 14.592 14.4995C14.6024 14.4995 14.6104 14.4891 14.6208 14.4859L16 14.8251V16.8003C16 18.1258 17.0745 19.2003 18.4 19.2003H20.8C22.1254 19.2003 23.2 18.1258 23.2 16.8003V16.0003C23.2 15.5584 23.5581 15.2003 24 15.2003C24.4418 15.2003 24.8 15.5584 24.8 16.0003V16.8003C24.8 18.1258 25.8745 19.2003 27.2 19.2003H29.6C30.9254 19.2003 32 18.1258 32 16.8003V14.8251L33.3736 14.4819C33.384 14.4819 33.392 14.4931 33.4024 14.4955C34.5713 14.7941 35.3343 15.9174 35.1811 17.1142C35.0278 18.311 34.0065 19.2057 32.8 19.2003C32.3581 19.2003 32 19.5584 32 20.0003V21.7483C31.9999 22.4405 31.701 23.099 31.18 23.5547L26.78 27.4067C26.3425 27.7893 25.7811 28.0002 25.2 28.0003H22.8C22.2188 28.0002 21.6574 27.7893 21.22 27.4067L16.82 23.5547C16.2989 23.099 16 22.4405 16 21.7483ZM20.168 28.6107C20.8966 29.2482 21.8318 29.5998 22.8 29.6003H25.2C26.169 29.6004 27.1051 29.2487 27.8344 28.6107L28.6952 27.8571C28.815 28.9511 29.0766 30.0249 29.4736 31.0515C28.8864 31.6243 27.2864 32.8003 24 32.8003C20.7136 32.8003 19.108 31.6203 18.5288 31.0523C18.9257 30.0255 19.1873 28.9514 19.3072 27.8571L20.168 28.6107Z" fill="white"/>
<path d="M21.5999 10.4004H17.5999C17.1581 10.4004 16.7999 10.7586 16.7999 11.2004C16.7999 11.6422 17.1581 12.0004 17.5999 12.0004H21.5999C22.0418 12.0004 22.3999 11.6422 22.3999 11.2004C22.3999 10.7586 22.0418 10.4004 21.5999 10.4004Z" fill="white"/>
<path d="M25.6 11.2004C25.6 11.6422 25.9581 12.0004 26.4 12.0004H30.4C30.8418 12.0004 31.2 11.6422 31.2 11.2004C31.2 10.7586 30.8418 10.4004 30.4 10.4004H26.4C25.9581 10.4004 25.6 10.7586 25.6 11.2004Z" fill="white"/>
<path d="M21.5999 8.00015H26.3999C26.8418 8.00015 27.1999 7.64197 27.1999 7.20015C27.1999 6.75832 26.8418 6.40015 26.3999 6.40015H21.5999C21.1581 6.40015 20.7999 6.75832 20.7999 7.20015C20.7999 7.64197 21.1581 8.00015 21.5999 8.00015Z" fill="white"/>
<path d="M21.5999 5.60024H23.1999C23.6418 5.60024 23.9999 5.24207 23.9999 4.80024C23.9999 4.35842 23.6418 4.00024 23.1999 4.00024H21.5999C21.1581 4.00024 20.7999 4.35842 20.7999 4.80024C20.7999 5.24207 21.1581 5.60024 21.5999 5.60024Z" fill="white"/>
</g>
<defs>
<clipPath id="clip0_48_3389">
<rect width="48" height="48" fill="white"/>
</clipPath>
</defs>
</svg>
