<svg width="24" height="24" viewBox="0 0 24 24" fill="none" xmlns="http://www.w3.org/2000/svg">
<g clip-path="url(#clip0_39_3125)">
<path d="M24 1.9005V1.26197C24 0.593856 23.4564 0.050293 22.7883 0.050293H1.21167C0.543563 0.050293 0 0.593856 0 1.26197V1.90054C0 2.46262 0.38475 2.93648 0.904734 3.07275V19.8241C0.38475 19.9604 0 20.4342 0 20.9962V22.738C0 23.4061 0.543563 23.9497 1.21167 23.9497H5.62238C5.81606 23.9497 6.75 23.8189 6.75 23.6251C6.75 23.4314 5.81611 23.2482 5.62238 23.2482H1.21167C0.930375 23.2482 0.701484 23.0193 0.701484 22.738V20.9962C0.701484 20.7149 0.930375 20.4861 1.21167 20.4861H1.2555H22.7445H22.7883C23.0697 20.4861 23.2985 20.7149 23.2985 20.9962V22.738C23.2985 23.0193 23.0697 23.2482 22.7883 23.2482H5.62238C5.42869 23.2482 6.375 23.4052 6.375 23.5989C6.375 23.7926 5.42864 23.9497 5.62238 23.9497H22.7883C23.4564 23.9497 24 23.4061 24 22.738V20.9962C24 20.4342 23.6152 19.9603 23.0952 19.824V3.0727C23.6152 2.93648 24 2.46262 24 1.9005ZM0.701484 1.9005V1.26197C0.701484 0.980621 0.930375 0.751777 1.21167 0.751777H22.7883C23.0697 0.751777 23.2985 0.980621 23.2985 1.26197V1.90054C23.2985 2.18189 23.0697 2.41073 22.7883 2.41073H22.7445H16.0077H16.0067H1.2555H1.21167C0.930375 2.41068 0.701484 2.18184 0.701484 1.9005ZM13.0081 12.0668C12.3742 12.1685 11.8298 12.5409 11.4971 13.0612C11.1644 12.541 10.62 12.1685 9.98602 12.0668V3.11217H13.0081V12.0668ZM13.3589 12.7402C14.19 12.7402 14.8661 13.4163 14.8661 14.2474C14.8661 15.0785 14.19 15.7546 13.3589 15.7546C12.5279 15.7546 11.8517 15.0785 11.8517 14.2474C11.8517 13.4163 12.5279 12.7402 13.3589 12.7402ZM6.26241 12.0668V3.11217H9.28453V12.0668C8.65059 12.1685 8.10619 12.5409 7.77347 13.0612C7.44075 12.541 6.89634 12.1685 6.26241 12.0668ZM7.41881 14.2474C7.41881 15.0784 6.74273 15.7545 5.91164 15.7545C5.08055 15.7545 4.40447 15.0785 4.40447 14.2474C4.40447 13.4163 5.08059 12.7402 5.91164 12.7402C6.74269 12.7402 7.41881 13.4163 7.41881 14.2474ZM9.6353 12.7402C10.4663 12.7402 11.1425 13.4163 11.1425 14.2474C11.1425 15.0785 10.4664 15.7546 9.6353 15.7546C8.80425 15.7546 8.12812 15.0785 8.12812 14.2474C8.12812 13.4163 8.80425 12.7402 9.6353 12.7402ZM2.36034 19.7846H1.60622V3.11217H2.36034V19.7846ZM22.3937 19.7846H21.6396V4.87512C21.6396 4.68139 21.4826 6.2887 21.2888 6.2887C21.0951 6.2887 20.9381 6.44573 20.9381 6.63942V19.7846H3.06183V3.11217H5.56092V12.0668C4.50919 12.2354 3.70298 13.1489 3.70298 14.2474C3.70298 15.4652 4.69378 16.456 5.91164 16.456C6.69323 16.456 7.3808 16.0476 7.77347 15.4333C8.16614 16.0476 8.8537 16.456 9.6353 16.456C10.4169 16.456 11.1045 16.0476 11.4971 15.4333C11.8898 16.0476 12.5774 16.456 13.3589 16.456C14.5768 16.456 15.5676 15.4652 15.5676 14.2474C15.5676 13.1489 14.7614 12.2354 13.7097 12.0668V3.11217H15.711L17.4179 12.143C16.5269 12.4276 15.8797 13.2632 15.8797 14.2474C15.8797 15.4652 16.8705 16.456 18.0884 16.456C19.3062 16.456 20.297 15.4652 20.297 14.2474C20.297 13.0375 19.319 12.0522 18.1122 12.0393L16.4249 3.11217H20.9381V6.75012C20.9381 6.94386 21.0952 6.75012 21.2889 6.75012C21.4826 6.75012 21.6397 6.94386 21.6397 6.75012V3.11217H22.3938L22.3937 19.7846ZM18.0884 12.7402C18.9194 12.7402 19.5955 13.4163 19.5955 14.2474C19.5955 15.0785 18.9194 15.7546 18.0884 15.7546C17.2573 15.7546 16.5812 15.0785 16.5812 14.2474C16.5812 13.4163 17.2573 12.7402 18.0884 12.7402Z" fill="#E27410"/>
</g>
<defs>
<clipPath id="clip0_39_3125">
<rect width="24" height="24" fill="white"/>
</clipPath>
</defs>
</svg>
