<svg width="48" height="48" viewBox="0 0 48 48" fill="none" xmlns="http://www.w3.org/2000/svg">
<path d="M39.2786 1.70874H26.2661C26.1799 1.70869 26.0945 1.72563 26.0149 1.75859C25.9352 1.79156 25.8629 1.83989 25.8019 1.90084C25.741 1.96179 25.6926 2.03415 25.6597 2.1138C25.6267 2.19344 25.6098 2.2788 25.6098 2.36499V3.64899C25.1543 3.7359 24.7205 3.91217 24.3335 4.16763C23.9465 4.42309 23.6139 4.75268 23.3549 5.13736C19.7627 5.23085 16.3486 6.72241 13.8393 9.29468C11.33 11.867 9.92351 15.3169 9.91906 18.9104V29.2191L9.38619 31.6746H8.72131C8.54727 31.6746 8.38035 31.7437 8.25727 31.8668C8.1342 31.9899 8.06506 32.1568 8.06506 32.3309V45.6347C8.06506 45.8088 8.1342 45.9757 8.25727 46.0988C8.38035 46.2218 8.54727 46.291 8.72131 46.291H15.0374C15.1236 46.291 15.209 46.2741 15.2886 46.2411C15.3683 46.2082 15.4406 46.1598 15.5016 46.0989C15.5625 46.0379 15.6109 45.9656 15.6438 45.8859C15.6768 45.8063 15.6937 45.7209 15.6937 45.6347V32.3309C15.6937 32.2447 15.6768 32.1593 15.6438 32.0797C15.6109 32 15.5625 31.9277 15.5016 31.8667C15.4406 31.8058 15.3683 31.7574 15.2886 31.7245C15.209 31.6915 15.1236 31.6746 15.0374 31.6746H14.3741L13.8412 29.2191V18.895C13.8445 16.3407 14.8395 13.8875 16.6165 12.0526C18.3934 10.2177 20.8133 9.14446 23.3662 9.05911C23.4633 9.19999 23.5707 9.33348 23.6876 9.45849V12.1776C21.8967 12.343 20.2321 13.1707 19.0194 14.4988C17.8066 15.8269 17.1332 17.5597 17.1307 19.3581V43.7597C17.1314 44.4309 17.3983 45.0743 17.8728 45.5488C18.3474 46.0234 18.9908 46.2903 19.6619 46.291H32.8668C33.5379 46.2903 34.1814 46.0234 34.6559 45.5488C35.1305 45.0743 35.3974 44.4309 35.3981 43.7597V19.3581C35.3956 17.5595 34.722 15.8266 33.5091 14.4986C32.2962 13.1705 30.6314 12.3428 28.8404 12.1776V9.45849C29.2801 8.98242 29.5787 8.39349 29.7029 7.75749C32.472 7.8559 35.1885 8.54127 37.6728 9.76824C37.825 9.85278 38.0045 9.8734 38.1719 9.82558C38.3393 9.77776 38.4808 9.66541 38.5653 9.51324C38.6499 9.36107 38.6705 9.18155 38.6227 9.01418C38.5748 8.8468 38.4625 8.70528 38.3103 8.62074C36.5497 7.72318 34.6637 7.09649 32.7161 6.76186L39.4556 4.87486C39.5934 4.83612 39.7149 4.75338 39.8014 4.63924C39.8879 4.52511 39.9348 4.38583 39.9348 4.24261V2.36762C39.9352 2.28121 39.9184 2.1956 39.8856 2.11567C39.8528 2.03575 39.8045 1.9631 39.7435 1.90188C39.6826 1.84066 39.6101 1.79209 39.5303 1.75894C39.4505 1.7258 39.365 1.70874 39.2786 1.70874ZM26.2661 4.89624C26.6997 4.89631 27.1236 5.02497 27.4841 5.26595C27.8446 5.50692 28.1256 5.84939 28.2915 6.25004C28.4574 6.6507 28.5008 7.09155 28.4161 7.51685C28.3315 7.94216 28.1226 8.33281 27.816 8.63942C27.5093 8.94602 27.1186 9.15481 26.6933 9.23939C26.268 9.32396 25.8272 9.28052 25.4265 9.11455C25.0259 8.94858 24.6835 8.66755 24.4426 8.30698C24.2017 7.94642 24.0731 7.52251 24.0731 7.08886C24.0741 6.50795 24.3053 5.95111 24.716 5.54034C25.1268 5.12956 25.6836 4.89836 26.2646 4.89736L26.2661 4.89624ZM25.0023 12.1435V10.3555C25.8144 10.6751 26.7174 10.6751 27.5294 10.3555V12.1446L25.0023 12.1435ZM14.3823 44.9785H9.37756V32.9871H14.3823V44.9785ZM10.7294 31.6746L11.1044 29.9459H12.6558L13.0308 31.6746H10.7294ZM12.5294 18.895V28.6334H11.2316V18.9104C11.2357 15.758 12.4324 12.724 14.5813 10.4176C16.7303 8.11115 19.6722 6.7032 22.8164 6.47649C22.7364 6.9059 22.7401 7.34673 22.8273 7.77474C20.0269 7.99363 17.4117 9.25971 15.5031 11.3206C13.5944 13.3816 12.5324 16.086 12.5287 18.895H12.5294ZM34.0874 19.3581V43.7597C34.087 44.0828 33.9585 44.3926 33.73 44.6211C33.5016 44.8496 33.1918 44.9781 32.8687 44.9785H19.6619C19.3388 44.9781 19.0291 44.8496 18.8006 44.6211C18.5721 44.3926 18.4436 44.0828 18.4432 43.7597V19.3581C18.445 17.7936 19.0673 16.2936 20.1737 15.1873C21.28 14.081 22.78 13.4588 24.3446 13.4571H28.1842C29.7491 13.4583 31.2496 14.0803 32.3563 15.1867C33.4631 16.293 34.0857 17.7932 34.0874 19.3581ZM38.6249 3.74349L29.6643 6.25374C29.5034 5.60298 29.1595 5.0119 28.6733 4.55033C28.1872 4.08876 27.579 3.77599 26.9208 3.64899V3.02124H38.6208L38.6249 3.74349Z" fill="white"/>
<path d="M19.9259 23.2629V35.1722C19.9259 35.2584 19.9428 35.3437 19.9758 35.4234C20.0087 35.503 20.0571 35.5754 20.118 35.6363C20.179 35.6973 20.2513 35.7456 20.331 35.7786C20.4106 35.8115 20.496 35.8285 20.5822 35.8284H31.9465C32.1206 35.8284 32.2875 35.7593 32.4106 35.6362C32.5336 35.5132 32.6028 35.3462 32.6028 35.1722V23.2629C32.6028 23.0889 32.5336 22.922 32.4106 22.7989C32.2875 22.6758 32.1206 22.6067 31.9465 22.6067H20.584C20.4977 22.6064 20.4121 22.6232 20.3323 22.656C20.2524 22.6889 20.1798 22.7372 20.1187 22.7981C20.0575 22.8591 20.009 22.9315 19.9759 23.0113C19.9429 23.0911 19.9259 23.1766 19.9259 23.2629ZM21.2384 23.9192H31.2903V34.5159H21.2403L21.2384 23.9192Z" fill="white"/>
</svg>
