<svg width="16" height="16" viewBox="0 0 16 16" fill="none" xmlns="http://www.w3.org/2000/svg">
<path d="M8.00005 15.1902C4.03555 15.1902 0.810181 11.9648 0.810181 8.00024C0.810181 4.03583 4.03555 0.810547 8.00005 0.810547C11.9645 0.810547 15.1899 4.03583 15.1899 8.00024C15.1899 11.9648 11.9645 15.1902 8.00005 15.1902ZM8.00005 1.81055C4.58693 1.81055 1.81018 4.58723 1.81018 8.00024C1.81018 11.4134 4.58693 14.1902 8.00005 14.1902C11.4132 14.1902 14.1899 11.4134 14.1899 8.00024C14.1899 4.58723 11.4132 1.81055 8.00005 1.81055Z" fill="#E27410"/>
<path d="M10.41 10.3929C10.3213 10.3929 10.2315 10.3693 10.1503 10.3197L7.73978 8.85068C7.59084 8.75993 7.5 8.59812 7.5 8.42371V4.87402C7.5 4.5979 7.72388 4.37402 8 4.37402C8.27613 4.37402 8.5 4.5979 8.5 4.87402V8.1429L10.6707 9.46581C10.9065 9.60952 10.9811 9.91718 10.8374 10.153C10.7433 10.3075 10.5786 10.3929 10.41 10.3929Z" fill="#E27410"/>
</svg>
