<svg width="24" height="24" viewBox="0 0 24 24" fill="none" xmlns="http://www.w3.org/2000/svg">
<g clip-path="url(#clip0_48_5471)">
<path d="M24 1.90037V1.26184C24 0.593733 23.4564 0.0501709 22.7883 0.0501709H1.21167C0.543563 0.0501709 0 0.593733 0 1.26184V1.90042C0 2.4625 0.38475 2.93636 0.904734 3.07262V19.824C0.38475 19.9602 0 20.434 0 20.9961V22.7379C0 23.406 0.543563 23.9495 1.21167 23.9495H5.62238C5.81606 23.9495 6.75 23.8187 6.75 23.625C6.75 23.4313 5.81611 23.248 5.62238 23.248H1.21167C0.930375 23.248 0.701484 23.0192 0.701484 22.7379V20.9961C0.701484 20.7148 0.930375 20.4859 1.21167 20.4859H1.2555H22.7445H22.7883C23.0697 20.4859 23.2985 20.7148 23.2985 20.9961V22.7379C23.2985 23.0192 23.0697 23.248 22.7883 23.248H5.62238C5.42869 23.248 6.375 23.4051 6.375 23.5988C6.375 23.7925 5.42864 23.9495 5.62238 23.9495H22.7883C23.4564 23.9495 24 23.406 24 22.7379V20.9961C24 20.434 23.6152 19.9602 23.0952 19.8239V3.07258C23.6152 2.93636 24 2.4625 24 1.90037ZM0.701484 1.90037V1.26184C0.701484 0.980499 0.930375 0.751655 1.21167 0.751655H22.7883C23.0697 0.751655 23.2985 0.980499 23.2985 1.26184V1.90042C23.2985 2.18176 23.0697 2.41061 22.7883 2.41061H22.7445H16.0077H16.0067H1.2555H1.21167C0.930375 2.41056 0.701484 2.18172 0.701484 1.90037ZM13.0081 12.0667C12.3742 12.1683 11.8298 12.5408 11.4971 13.0611C11.1644 12.5409 10.62 12.1683 9.98602 12.0667V3.11205H13.0081V12.0667ZM13.3589 12.7401C14.19 12.7401 14.8661 13.4162 14.8661 14.2473C14.8661 15.0784 14.19 15.7545 13.3589 15.7545C12.5279 15.7545 11.8517 15.0784 11.8517 14.2473C11.8517 13.4162 12.5279 12.7401 13.3589 12.7401ZM6.26241 12.0667V3.11205H9.28453V12.0667C8.65059 12.1683 8.10619 12.5408 7.77347 13.0611C7.44075 12.5409 6.89634 12.1683 6.26241 12.0667ZM7.41881 14.2473C7.41881 15.0783 6.74273 15.7544 5.91164 15.7544C5.08055 15.7544 4.40447 15.0783 4.40447 14.2473C4.40447 13.4162 5.08059 12.74 5.91164 12.74C6.74269 12.74 7.41881 13.4162 7.41881 14.2473ZM9.6353 12.7401C10.4663 12.7401 11.1425 13.4162 11.1425 14.2473C11.1425 15.0784 10.4664 15.7545 9.6353 15.7545C8.80425 15.7545 8.12812 15.0784 8.12812 14.2473C8.12812 13.4162 8.80425 12.7401 9.6353 12.7401ZM2.36034 19.7845H1.60622V3.11205H2.36034V19.7845ZM22.3937 19.7845H21.6396V4.875C21.6396 4.68127 21.4826 6.28858 21.2888 6.28858C21.0951 6.28858 20.9381 6.44561 20.9381 6.6393V19.7845H3.06183V3.11205H5.56092V12.0667C4.50919 12.2353 3.70298 13.1487 3.70298 14.2473C3.70298 15.4651 4.69378 16.4559 5.91164 16.4559C6.69323 16.4559 7.3808 16.0474 7.77347 15.4331C8.16614 16.0474 8.8537 16.4559 9.6353 16.4559C10.4169 16.4559 11.1045 16.0474 11.4971 15.4331C11.8898 16.0474 12.5774 16.4559 13.3589 16.4559C14.5768 16.4559 15.5676 15.4651 15.5676 14.2473C15.5676 13.1487 14.7614 12.2353 13.7097 12.0667V3.11205H15.711L17.4179 12.1429C16.5269 12.4275 15.8797 13.2631 15.8797 14.2473C15.8797 15.4651 16.8705 16.4559 18.0884 16.4559C19.3062 16.4559 20.297 15.4651 20.297 14.2473C20.297 13.0374 19.319 12.052 18.1122 12.0392L16.4249 3.11205H20.9381V6.75C20.9381 6.94374 21.0952 6.75 21.2889 6.75C21.4826 6.75 21.6397 6.94374 21.6397 6.75V3.11205H22.3938L22.3937 19.7845ZM18.0884 12.7401C18.9194 12.7401 19.5955 13.4162 19.5955 14.2473C19.5955 15.0784 18.9194 15.7545 18.0884 15.7545C17.2573 15.7545 16.5812 15.0784 16.5812 14.2473C16.5812 13.4162 17.2573 12.7401 18.0884 12.7401Z" fill="#E27410"/>
</g>
<defs>
<clipPath id="clip0_48_5471">
<rect width="24" height="24" fill="white"/>
</clipPath>
</defs>
</svg>
