<svg width="14" height="16" viewBox="0 0 14 16" fill="none" xmlns="http://www.w3.org/2000/svg">
<path d="M7 15.625C6.91288 15.625 6.82588 15.6023 6.748 15.5569C6.49288 15.408 0.5 11.8576 0.5 7.125C0.5 3.54075 3.41575 0.625 7 0.625C10.5842 0.625 13.5 3.54075 13.5 7.125C13.5 11.8576 7.50712 15.408 7.252 15.5569C7.17412 15.6023 7.08712 15.625 7 15.625ZM7 1.625C3.96725 1.625 1.5 4.09225 1.5 7.125C1.5 10.7751 5.88987 13.824 7 14.5364C8.11013 13.824 12.5 10.7751 12.5 7.125C12.5 4.09225 10.0328 1.625 7 1.625ZM7 10.125C5.34575 10.125 4 8.77925 4 7.125C4 5.47075 5.34575 4.125 7 4.125C8.65425 4.125 10 5.47075 10 7.125C10 8.77925 8.65425 10.125 7 10.125ZM7 5.125C5.89725 5.125 5 6.02225 5 7.125C5 8.22775 5.89725 9.125 7 9.125C8.10275 9.125 9 8.22775 9 7.125C9 6.02225 8.10275 5.125 7 5.125Z" fill="#E27410"/>
</svg>
