<svg width="24" height="24" viewBox="0 0 24 24" fill="none" xmlns="http://www.w3.org/2000/svg">
<g clip-path="url(#clip0_48_5475)">
<path d="M12.1301 8.50815H3.13081C2.93666 8.50815 2.7793 8.66555 2.7793 8.85966C2.7793 9.05382 2.93666 9.21118 3.13081 9.21118H12.1301C12.3243 9.21118 12.4816 9.05377 12.4816 8.85966C12.4816 8.66555 12.3243 8.50815 12.1301 8.50815Z" fill="#E27410"/>
<path d="M12.1301 10.9781H3.13081C2.93666 10.9781 2.7793 11.1356 2.7793 11.3297C2.7793 11.5238 2.93666 11.6812 3.13081 11.6812H12.1301C12.3243 11.6812 12.4816 11.5238 12.4816 11.3297C12.4816 11.1356 12.3243 10.9781 12.1301 10.9781Z" fill="#E27410"/>
<path d="M12.1301 13.4483H3.13081C2.93666 13.4483 2.7793 13.6057 2.7793 13.7998C2.7793 13.9939 2.93666 14.1513 3.13081 14.1513H12.1301C12.3243 14.1513 12.4816 13.9939 12.4816 13.7998C12.4816 13.6057 12.3243 13.4483 12.1301 13.4483Z" fill="#E27410"/>
<path d="M12.4816 16.2701C12.4816 16.0759 12.3243 15.9186 12.1301 15.9186H3.13081C2.93666 15.9186 2.7793 16.076 2.7793 16.2701C2.7793 16.4642 2.93666 16.6216 3.13081 16.6216H12.1301C12.3243 16.6216 12.4816 16.4643 12.4816 16.2701Z" fill="#E27410"/>
<path d="M3.13081 19.5386C2.93666 19.5386 2.7793 19.696 2.7793 19.8901C2.7793 20.0842 2.93666 20.2416 3.13081 20.2416H7.64197C7.83613 20.2416 7.99349 20.0842 7.99349 19.8901C7.99349 19.696 7.83613 19.5386 7.64197 19.5386H3.13081Z" fill="#E27410"/>
<path d="M16.181 4.35249V3.21183C16.181 2.7773 15.8275 2.42377 15.3929 2.42377H8.17571C7.74118 2.42377 7.3877 2.7773 7.3877 3.21183V4.35249C7.3877 4.78702 7.74118 5.1405 8.17571 5.1405H8.78518C8.97934 5.1405 9.1367 4.9831 9.1367 4.78899C9.1367 4.59483 8.97934 4.43747 8.78518 4.43747H8.17571C8.12888 4.43747 8.09077 4.39936 8.09077 4.35253V3.21183C8.09077 3.165 8.12888 3.12685 8.17571 3.12685H15.3929C15.4398 3.12685 15.4779 3.16495 15.4779 3.21183V4.35249C15.4779 4.39931 15.4398 4.43742 15.3929 4.43742H8.79097C8.59681 4.43742 8.43945 4.59483 8.43945 4.78894C8.43945 4.9831 8.59681 5.14045 8.79097 5.14045H15.393C15.8275 5.14055 16.181 4.78702 16.181 4.35249Z" fill="#E27410"/>
<path d="M18.8093 20.25C18.6152 20.25 18.4578 20.4074 18.4578 20.6015V22.2607C18.4578 22.832 17.993 23.2969 17.4215 23.2969H1.87016C1.2988 23.2969 0.833891 22.8321 0.833891 22.2607V5.36381C0.833891 5.28773 0.842797 5.21311 0.858687 5.1405H4.05945C4.7277 5.1405 5.27136 4.59684 5.27136 3.92859V0.727875C5.34397 0.711984 5.41855 0.703078 5.49463 0.703078H17.4215C17.9929 0.703078 18.4578 1.16794 18.4578 1.73934V7.89848C18.4578 8.09264 18.6151 8.25 18.8093 8.25C19.0034 8.25 19.1608 8.09259 19.1608 7.89848V1.7393C19.1608 0.780281 18.3806 0 17.4215 0H5.49467C5.03009 0 4.59327 0.180937 4.26477 0.509438L0.64025 4.13395C0.31175 4.46245 0.130859 4.89923 0.130859 5.36386V22.2607C0.130859 23.2198 0.911094 24 1.87016 24H17.4215C18.3806 24 19.1608 23.2197 19.1608 22.2607V20.6016C19.1608 20.4074 19.0035 20.25 18.8093 20.25ZM4.56833 1.20019V3.92859C4.56833 4.20919 4.34005 4.43747 4.05945 4.43747H1.33105L4.56833 1.20019Z" fill="#E27410"/>
<path d="M23.6243 12.5625C23.871 12.2003 23.9349 11.7536 23.7995 11.3367C23.664 10.9199 23.3497 10.596 22.9372 10.4481C22.6636 10.3499 22.481 10.0987 22.4723 9.80805C22.459 9.37001 22.248 8.97101 21.8934 8.71338C21.5389 8.4558 21.0942 8.37851 20.6736 8.50122C20.3943 8.58269 20.0991 8.48669 19.9212 8.25677C19.653 7.91013 19.2479 7.71133 18.8096 7.71133C18.3713 7.71133 17.9661 7.91013 17.6979 8.25677C17.5199 8.48674 17.2246 8.5826 16.9455 8.50122C16.5249 8.37841 16.0802 8.4558 15.7256 8.71338C15.3711 8.97101 15.1602 9.36996 15.1469 9.80801C15.1381 10.0986 14.9556 10.3498 14.6819 10.448C14.2694 10.596 13.9551 10.9199 13.8197 11.3367C13.6843 11.7535 13.7481 12.2003 13.9949 12.5625C14.1585 12.8028 14.1585 13.1133 13.9949 13.3536C13.7481 13.7158 13.6843 14.1626 13.8197 14.5794C13.9551 14.9962 14.2694 15.3201 14.6819 15.4681C14.9556 15.5663 15.1381 15.8175 15.1469 16.1081C15.1591 16.511 15.3437 16.8896 15.6536 17.1468C15.858 17.3164 16.1036 17.4226 16.3606 17.4581V20.6586C16.3606 20.9287 16.5071 21.1783 16.7428 21.31C16.9783 21.4415 17.2677 21.4357 17.4978 21.294L18.7871 20.5003C18.8081 20.4873 18.8206 20.4932 18.8322 20.5003L20.1214 21.294C20.3514 21.4355 20.6408 21.4416 20.8765 21.3099C21.1123 21.1782 21.2587 20.9286 21.2587 20.6586V17.458C21.5156 17.4226 21.7612 17.3164 21.9656 17.1468C22.2755 16.8896 22.4602 16.5111 22.4724 16.1081C22.4811 15.8174 22.6637 15.5662 22.9374 15.468C23.3499 15.3201 23.6642 14.9961 23.7996 14.5793C23.935 14.1625 23.8712 13.7157 23.6244 13.3535C23.4606 13.1133 23.4606 12.8028 23.6243 12.5625ZM20.4899 20.6953L19.2006 19.9016C18.961 19.7541 18.6584 19.7538 18.4184 19.9016L17.1292 20.6952C17.0999 20.7131 17.0636 20.6925 17.0636 20.6586V17.3913C17.3053 17.3634 17.5449 17.4617 17.6979 17.6594C17.9661 18.006 18.3713 18.2048 18.8096 18.2048C19.2479 18.2048 19.653 18.006 19.9212 17.6594C20.0742 17.4617 20.3139 17.3634 20.5555 17.3913V20.6586C20.5555 20.6928 20.5188 20.7131 20.4899 20.6953ZM23.0433 13.7495C23.1666 13.9306 23.1985 14.1538 23.1308 14.3621C23.0631 14.5705 22.9061 14.7324 22.6999 14.8063C22.1523 15.0027 21.7871 15.5054 21.7695 16.0869C21.7633 16.2913 21.6734 16.4756 21.5166 16.6058C21.3402 16.7522 21.1013 16.8074 20.8706 16.7401C20.3121 16.5771 19.7212 16.7691 19.3651 17.2292C19.2311 17.4024 19.0286 17.5017 18.8095 17.5017C18.5905 17.5017 18.388 17.4024 18.2539 17.2292C17.982 16.8778 17.5732 16.6828 17.1465 16.6828C17.0144 16.6828 16.8806 16.7015 16.7486 16.74C16.5156 16.8079 16.2774 16.751 16.1024 16.6057C15.9456 16.4755 15.8557 16.2912 15.8496 16.0869C15.8319 15.5054 15.4668 15.0027 14.9191 14.8063C14.713 14.7323 14.5559 14.5705 14.4882 14.3621C14.4205 14.1538 14.4524 13.9305 14.5758 13.7495C14.9033 13.2687 14.9033 12.6475 14.5758 12.1667C14.4524 11.9856 14.4205 11.7623 14.4882 11.554C14.5559 11.3456 14.713 11.1837 14.9191 11.1098C15.4668 10.9134 15.8319 10.4107 15.8496 9.82924C15.8562 9.61029 15.9615 9.41088 16.1388 9.28216C16.3159 9.1534 16.5381 9.11477 16.7485 9.17608C17.3068 9.33907 17.8979 9.14702 18.2539 8.68699C18.3879 8.51374 18.5904 8.41437 18.8095 8.41437C19.0286 8.41437 19.2311 8.51369 19.3651 8.68694C19.7211 9.14702 20.312 9.33902 20.8705 9.17608C21.0808 9.11468 21.303 9.15335 21.4802 9.28212C21.6575 9.41083 21.7629 9.61029 21.7695 9.82919C21.7871 10.4107 22.1523 10.9134 22.6999 11.1098C22.9061 11.1837 23.0631 11.3456 23.1308 11.5539C23.1985 11.7622 23.1666 11.9856 23.0433 12.1666C22.7157 12.6474 22.7157 13.2687 23.0433 13.7495Z" fill="#E27410"/>
<path d="M18.8096 10.0117C17.185 10.0117 15.8633 11.3334 15.8633 12.958C15.8633 14.5826 17.185 15.9042 18.8096 15.9042C20.4341 15.9042 21.7558 14.5826 21.7558 12.958C21.7558 11.3334 20.4341 10.0117 18.8096 10.0117ZM18.8096 15.2012C17.5726 15.2012 16.5663 14.1949 16.5663 12.958C16.5663 11.7211 17.5726 10.7148 18.8096 10.7148C20.0465 10.7148 21.0528 11.7211 21.0528 12.958C21.0528 14.1949 20.0465 15.2012 18.8096 15.2012Z" fill="#E27410"/>
</g>
<defs>
<clipPath id="clip0_48_5475">
<rect width="24" height="24" fill="white"/>
</clipPath>
</defs>
</svg>
