<svg width="48" height="48" viewBox="0 0 48 48" fill="none" xmlns="http://www.w3.org/2000/svg">
<g clip-path="url(#clip0_48_3434)">
<path d="M34.6108 19.2002H33.6003C33.1816 19.2002 32.8424 19.5395 32.8424 19.9581C32.8424 20.3767 33.1817 20.7159 33.6003 20.7159H34.6108C35.0295 20.7159 35.3687 20.3767 35.3687 19.9581C35.3687 19.5395 35.0294 19.2002 34.6108 19.2002Z" fill="white"/>
<path d="M29.3058 24.0001C29.3058 23.5814 28.9666 23.2422 28.5479 23.2422H12.3794C11.9607 23.2422 11.6215 23.5815 11.6215 24.0001C11.6215 24.4187 11.9607 24.7579 12.3794 24.7579H28.5478C28.9664 24.7579 29.3058 24.4187 29.3058 24.0001Z" fill="white"/>
<path d="M12.3794 38.3999C11.9607 38.3999 11.6215 38.7392 11.6215 39.1578C11.6215 39.5764 11.9607 39.9157 12.3794 39.9157H16.4215C16.8402 39.9157 17.1794 39.5764 17.1794 39.1578C17.1794 38.7392 16.8402 38.3999 16.4215 38.3999H12.3794Z" fill="white"/>
<path fill-rule="evenodd" clip-rule="evenodd" d="M32.3883 40.8252C32.9102 41.5214 33.7413 41.9369 34.6114 41.9369C35.4814 41.9369 36.3125 41.5214 36.8345 40.8253L40.927 35.3687L42.4428 33.3477L47.4451 26.678C48.3645 25.4522 48.1151 23.7069 46.8891 22.7873C45.6633 21.8681 43.9179 22.1174 42.9987 23.3433L42.4428 24.0845V2.77894C42.4428 1.24669 41.1962 0 39.6639 0H7.32729C5.79485 0 4.54826 1.24669 4.54826 2.77894V3.03159H2.77985C1.24751 3.03159 0.000915527 4.27828 0.000915527 5.81053V42.1895C0.000915527 43.7217 1.24751 44.9684 2.77985 44.9684H4.54826V45.2211C4.54826 46.7533 5.79485 48 7.3272 48H39.6638C41.1961 48 42.4428 46.7533 42.4428 45.2211V33.3477L40.927 35.3687V45.2211C40.927 45.9176 40.3604 46.4842 39.6638 46.4842H7.32729C6.63073 46.4842 6.0641 45.9176 6.0641 45.2211V10.0579C6.0641 10.0229 6.06174 9.98855 6.05717 9.95486C6.00722 10.3251 5.69003 10.6104 5.30613 10.6104C4.92247 10.6104 4.60544 10.3255 4.5552 9.95557C4.55068 9.98903 4.54835 10.0232 4.54835 10.0579V43.4527H2.77985C2.08329 43.4527 1.51667 42.886 1.51667 42.1895V5.81053C1.51667 5.11397 2.08329 4.54734 2.77985 4.54734H4.54826V9.85256C4.54826 9.8875 4.55062 9.92189 4.5552 9.95557C4.60514 9.58537 4.92233 9.3 5.30623 9.3C5.68989 9.3 6.00692 9.58494 6.05717 9.95486C6.06168 9.92141 6.06401 9.88726 6.06401 9.85256V2.77894C6.06401 2.08238 6.63063 1.51575 7.3272 1.51575H39.6638C40.3604 1.51575 40.927 2.08238 40.927 2.77894V26.0211C40.927 26.0478 40.9284 26.074 40.931 26.1001L34.6114 34.5264L32.2873 31.4274C31.842 30.8335 31.1919 30.4487 30.4571 30.3438C29.7219 30.2388 28.9904 30.4264 28.3968 30.8717C27.8028 31.317 27.418 31.9671 27.3131 32.7019C27.2081 33.4368 27.3957 34.1684 27.841 34.7622L32.3883 40.8252ZM29.3063 32.0843C29.0363 32.2868 28.8614 32.5823 28.8136 32.9162C28.7659 33.2502 28.8511 33.5828 29.0536 33.8528L33.6009 39.9159C33.8382 40.2323 34.2159 40.4212 34.6114 40.4212C35.0069 40.4212 35.3846 40.2323 35.6219 39.9159L46.2324 25.7685C46.6503 25.2113 46.5369 24.418 45.9798 24.0001C45.4226 23.5823 44.6292 23.6954 44.2114 24.2528L35.2176 36.2444C35.0746 36.4353 34.8498 36.5476 34.6114 36.5476C34.3729 36.5476 34.1481 36.4353 34.0051 36.2444L31.0746 32.337C30.8721 32.0671 30.5766 31.8922 30.2427 31.8443C30.182 31.8357 30.1215 31.8314 30.0614 31.8314C29.7901 31.8314 29.5272 31.9185 29.3063 32.0843Z" fill="white"/>
<path d="M5.30613 10.6104C5.69003 10.6104 6.00722 10.3251 6.05717 9.95486C6.00692 9.58494 5.68989 9.3 5.30623 9.3C4.92233 9.3 4.60514 9.58537 4.5552 9.95557C4.60544 10.3255 4.92247 10.6104 5.30613 10.6104Z" fill="white"/>
<path d="M24.2531 35.1158C24.2531 34.6971 23.9139 34.3579 23.4952 34.3579H12.3794C11.9607 34.3579 11.6215 34.6972 11.6215 35.1158C11.6215 35.5344 11.9607 35.8737 12.3794 35.8737H23.4952C23.9138 35.8738 24.2531 35.5345 24.2531 35.1158Z" fill="white"/>
<path d="M17.9373 13.1367C17.5186 13.1367 17.1794 13.4759 17.1794 13.8946C17.1794 14.3133 17.5186 14.6525 17.9373 14.6525H29.0531C29.4718 14.6525 29.811 14.3133 29.811 13.8946C29.811 13.4759 29.4718 13.1367 29.0531 13.1367H17.9373Z" fill="white"/>
<path d="M12.3794 20.7159H28.5478C28.9665 20.7159 29.3057 20.3767 29.3057 19.9581C29.3057 19.5395 28.9665 19.2002 28.5478 19.2002H12.3794C11.9607 19.2002 11.6215 19.5395 11.6215 19.9581C11.6215 20.3767 11.9608 20.7159 12.3794 20.7159Z" fill="white"/>
<path d="M34.6109 9.09473H12.3794C11.9607 9.09473 11.6215 9.43391 11.6215 9.8526C11.6215 10.2713 11.9607 10.6105 12.3794 10.6105H34.6109C35.0296 10.6105 35.3688 10.2713 35.3688 9.8526C35.3688 9.43391 35.0295 9.09473 34.6109 9.09473Z" fill="white"/>
<path d="M34.6108 23.2422H33.6003C33.1816 23.2422 32.8424 23.5815 32.8424 24.0001C32.8424 24.4187 33.1817 24.7579 33.6003 24.7579H34.6108C35.0295 24.7579 35.3687 24.4186 35.3687 24.0001C35.3687 23.5814 35.0294 23.2422 34.6108 23.2422Z" fill="white"/>
</g>
<defs>
<clipPath id="clip0_48_3434">
<rect width="48" height="48" fill="white"/>
</clipPath>
</defs>
</svg>
