<svg width="48" height="48" viewBox="0 0 48 48" fill="none" xmlns="http://www.w3.org/2000/svg">
<path d="M27.75 21.75C27.2325 21.75 26.8125 22.17 26.8125 22.6875C26.8125 23.205 27.2325 23.625 27.75 23.625C28.2675 23.625 28.6875 23.205 28.6875 22.6875C28.6875 22.17 28.2675 21.75 27.75 21.75Z" fill="white"/>
<path d="M24 16.125C23.4825 16.125 23.0625 16.545 23.0625 17.0625C23.0625 17.58 23.4825 18 24 18C24.5175 18 24.9375 17.58 24.9375 17.0625C24.9375 16.545 24.5175 16.125 24 16.125Z" fill="white"/>
<path d="M12.75 40.5C12.2325 40.5 11.8125 40.92 11.8125 41.4375C11.8125 41.955 12.2325 42.375 12.75 42.375C13.2675 42.375 13.6875 41.955 13.6875 41.4375C13.6875 40.92 13.2675 40.5 12.75 40.5Z" fill="white"/>
<path d="M42.6015 38.2198L30.5625 16.817V5.46431C31.6539 5.07741 32.4375 4.03481 32.4375 2.8125C32.4375 1.26169 31.1758 0 29.625 0H18.375C16.8242 0 15.5625 1.26169 15.5625 2.8125C15.5625 4.03481 16.3462 5.07741 17.4375 5.46431V16.817L5.39852 38.2198C4.24277 40.2744 4.2633 42.716 5.45327 44.7507C6.64314 46.7853 8.76077 48 11.1178 48H36.8822C39.2393 48 41.3568 46.7853 42.5468 44.7507C43.7367 42.716 43.7573 40.2744 42.6015 38.2198ZM19.1921 17.5221C19.2711 17.3818 19.3125 17.2235 19.3125 17.0625V5.625H20.25C20.7677 5.625 21.1875 5.20519 21.1875 4.6875C21.1875 4.16981 20.7677 3.75 20.25 3.75H18.375C17.8581 3.75 17.4375 3.32944 17.4375 2.8125C17.4375 2.29556 17.8581 1.875 18.375 1.875H29.625C30.142 1.875 30.5625 2.29556 30.5625 2.8125C30.5625 3.32944 30.142 3.75 29.625 3.75H27.75C27.2323 3.75 26.8125 4.16981 26.8125 4.6875C26.8125 5.20519 27.2323 5.625 27.75 5.625H28.6875V17.0625C28.6875 17.2236 28.729 17.3817 28.8079 17.5221L34.3336 27.3458C30.9591 27.0726 27.5963 27.7551 24.5066 29.3549C20.5348 31.4103 16.1133 31.7722 11.9441 30.4074L19.1921 17.5221ZM40.9282 43.8041C40.0783 45.2573 38.5658 46.125 36.8822 46.125H11.1178C9.43427 46.125 7.9217 45.2573 7.07186 43.8041C6.22183 42.3507 6.20711 40.6067 7.03277 39.1389L11.0085 32.0709C12.9375 32.7445 14.931 33.0846 16.9557 33.0846C17.2555 33.0846 17.5559 33.0772 17.857 33.0622C20.473 32.9327 23.0003 32.2456 25.3686 31.02C28.5366 29.3798 32.021 28.8135 35.4732 29.3718L40.9674 39.1389C41.7929 40.6067 41.7783 42.3507 40.9282 43.8041Z" fill="white"/>
<path d="M20.25 21.75C18.6992 21.75 17.4375 23.0117 17.4375 24.5625C17.4375 26.1133 18.6992 27.375 20.25 27.375C21.8008 27.375 23.0625 26.1133 23.0625 24.5625C23.0625 23.0117 21.8008 21.75 20.25 21.75ZM20.25 25.5C19.7331 25.5 19.3125 25.0794 19.3125 24.5625C19.3125 24.0456 19.7331 23.625 20.25 23.625C20.7669 23.625 21.1875 24.0456 21.1875 24.5625C21.1875 25.0794 20.7669 25.5 20.25 25.5Z" fill="white"/>
<path d="M35.25 40.5H16.5C15.9823 40.5 15.5625 40.9198 15.5625 41.4375C15.5625 41.9552 15.9823 42.375 16.5 42.375H35.25C35.7677 42.375 36.1875 41.9552 36.1875 41.4375C36.1875 40.9198 35.7677 40.5 35.25 40.5Z" fill="white"/>
</svg>
