<svg width="12" height="8" viewBox="0 0 12 8" fill="none" xmlns="http://www.w3.org/2000/svg">
<path d="M10.0974 7.39091H1.90247C1.6361 7.3906 1.38073 7.28464 1.19238 7.09628C1.00404 6.90792 0.898107 6.65254 0.897827 6.38617V1.32505C0.898107 1.05868 1.00404 0.803297 1.19238 0.614936C1.38073 0.426574 1.6361 0.320617 1.90247 0.320312H10.0974C10.3638 0.320617 10.6192 0.426574 10.8075 0.614936C10.9958 0.803297 11.1018 1.05868 11.1021 1.32505V6.38617C11.1018 6.65254 10.9958 6.90792 10.8075 7.09628C10.6192 7.28464 10.3638 7.3906 10.0974 7.39091ZM1.90247 0.704313C1.7379 0.70449 1.58013 0.76995 1.46377 0.886324C1.34741 1.0027 1.28198 1.16048 1.28183 1.32505V6.38617C1.28198 6.55073 1.34741 6.70852 1.46377 6.82489C1.58013 6.94127 1.7379 7.00673 1.90247 7.00691H10.0974C10.262 7.00673 10.4198 6.94127 10.5361 6.82489C10.6525 6.70852 10.7179 6.55073 10.7181 6.38617V1.32505C10.7179 1.16048 10.6525 1.0027 10.5361 0.886324C10.4198 0.76995 10.262 0.70449 10.0974 0.704313H1.90247Z" fill="#E27410"/>
<path d="M5.99991 4.98556C5.95311 4.98558 5.90791 4.96851 5.87281 4.93756L1.24561 0.852942L1.49972 0.564941L5.99991 4.53781L10.5003 0.565422L10.7544 0.853422L6.12721 4.93804C6.09201 4.96891 6.04672 4.98582 5.99991 4.98556Z" fill="#E27410"/>
<path d="M1.14124 6.78809L4.24974 3.24628L4.53851 3.49972L1.43 7.04153L1.14124 6.78809Z" fill="#E27410"/>
<path d="M7.47119 3.49609L7.75996 3.24265L10.8685 6.78453L10.5798 7.03797L7.47119 3.49609Z" fill="#E27410"/>
</svg>
